<?xml version="1.0" encoding="UTF-8"?>
<svg width="99px" height="99px" viewBox="0 0 99 99" version="1.1" xmlns="http://www.w3.org/2000/svg" xmlns:xlink="http://www.w3.org/1999/xlink">
    <!-- Generator: Sketch 48.1 (47250) - http://www.bohemiancoding.com/sketch -->
    <title>Group</title>
    <desc>Created with Sketch.</desc>
    <defs></defs>
    <g id="Artboard-Copy-3" stroke="none" stroke-width="1" fill="none" fill-rule="evenodd" transform="translate(-531.000000, -90.000000)">
        <g id="Group" transform="translate(531.000000, 90.000000)" fill="#8D1B3D" fill-rule="nonzero">
            <path d="M31.5676854,6.79010578 L30.3132944,3.74802692 C28.8225019,4.36727962 27.3709813,5.0592945 25.9587326,5.82407158 L27.5018876,8.72681857 C28.8186517,8.01777424 30.1739176,7.37220331 31.5676854,6.79010578 Z" id="Shape"></path>
            <path d="M27.5018876,8.72681857 L25.9587326,5.82407158 C24.5387835,6.58575239 23.1611865,7.41709913 21.8259416,8.3181118 L23.644,11.0536606 C24.8899206,10.2176694 26.1758831,9.44205543 27.5018876,8.72681857 Z" id="Shape"></path>
            <path d="M44.6198202,3.51116277 L44.2987146,0.23221976 C42.6847161,0.387032933 41.0953588,0.619252693 39.5306427,0.928879039 L40.1682337,4.17995568 C41.6282247,3.88426252 43.1120869,3.66133155 44.6198202,3.51116277 Z" id="Shape"></path>
            <path d="M35.8067416,5.26674415 L34.8526652,2.11552201 C33.3125903,2.57996153 31.7994667,3.12180764 30.3132944,3.74106033 L31.5676854,6.78313918 C32.9546565,6.20691009 34.3694445,5.70081218 35.8067416,5.26674415 Z" id="Shape"></path>
            <path d="M20.0332944,13.749732 L17.9541933,11.1953146 C16.7113528,12.221726 15.5208749,13.3054182 14.3827596,14.4463913 L16.6928719,16.7685889 C17.7570637,15.7158593 18.8705378,14.7095737 20.0332944,13.749732 Z" id="Shape"></path>
            <path d="M53.6061573,3.51116277 L53.9272629,0.23221976 C52.3425258,0.0774065866 50.7377678,0 49.1129888,0 L49.1129888,3.290554 C50.6284225,3.290554 52.1276854,3.36718652 53.6061573,3.51116277 Z" id="Shape"></path>
            <path d="M8.68140225,27.6457624 L5.7937618,26.0945344 C5.03604494,27.5126231 4.34763146,28.9717372 3.72852135,30.4718769 L6.75476854,31.7328302 C7.3338367,30.3348672 7.97604794,28.9725113 8.68140225,27.6457624 Z" id="Shape"></path>
            <path d="M5.23933483,35.9940628 L2.10451236,35.0349952 C1.64248989,36.57229 1.25747116,38.1397733 0.94945618,39.7374453 L4.15820225,40.3783718 C4.44234607,38.8898432 4.80734382,37.4245365 5.23933483,35.9940628 Z" id="Shape"></path>
            <path d="M6.75476854,31.7328302 L3.72852135,30.4718769 C3.11249139,31.9580833 2.57346517,33.4791228 2.1114427,35.0349952 L5.23933483,35.9940628 C5.67341558,34.5491181 6.1791933,33.1269269 6.75476854,31.7328302 Z" id="Shape"></path>
            <path d="M16.6998022,16.7871664 L14.3896899,14.4649688 C13.2531146,15.6074901 12.1750622,16.8041959 11.1555326,18.0550863 L13.6966562,20.1450642 C14.639182,18.9746766 15.6402307,17.8553773 16.6998022,16.7871664 Z" id="Shape"></path>
            <path d="M13.6781753,20.1380976 L11.1370517,18.0481197 C10.1190622,19.2943658 9.16113558,20.5909261 8.26327191,21.9378007 L10.9845843,23.7653702 C11.8239251,22.5129316 12.7217888,21.3038408 13.6781753,20.1380976 Z" id="Shape"></path>
            <path d="M10.9961348,23.7676924 L8.27482247,21.9401229 C7.37849888,23.280805 6.55147865,24.6656088 5.7937618,26.0945344 L8.68140225,27.6457624 C9.39137678,26.312821 10.1629543,25.020131 10.9961348,23.7676924 Z" id="Shape"></path>
            <path d="M23.644,11.0536606 L21.8259416,8.3181118 C20.4876165,9.21757633 19.1978037,10.1805143 17.9565034,11.2069256 L20.0356045,13.761343 C21.1922007,12.7922125 22.3949993,11.8896517 23.644,11.0536606 Z" id="Shape"></path>
            <path d="M92.9866427,35.9940628 L96.1191551,35.0373174 C95.6571326,33.4891856 95.1181064,31.9681462 94.5020764,30.4741991 L91.4804494,31.7328302 C92.0456569,33.1199562 92.5477213,34.5403671 92.9866427,35.9940628 Z" id="Shape"></path>
            <path d="M91.4804494,31.7328302 L94.5043865,30.4718769 C93.8883566,28.9732854 93.2007131,27.5141712 92.4414562,26.0945344 L89.5538157,27.6457624 C90.2545498,28.969415 90.896761,30.331771 91.4804494,31.7328302 Z" id="Shape"></path>
            <path d="M89.5445753,27.6457624 L92.4322157,26.0945344 C91.6714187,24.6656088 90.8443985,23.280805 89.9511551,21.9401229 L87.2275326,23.7676924 C88.0607131,25.020131 88.8330607,26.312821 89.5445753,27.6457624 Z" id="Shape"></path>
            <path d="M94.7307775,53.8865953 L97.9903461,54.2093807 C98.1443536,52.6163532 98.2213573,51.0031999 98.2213573,49.3699209 L94.945618,49.3699209 C94.945618,50.8932826 94.8740045,52.3988407 94.7307775,53.8865953 Z" id="Shape"></path>
            <path d="M94.7307775,44.8532466 L97.9903461,44.5304611 C97.8363386,42.9080191 97.6053273,41.3103471 97.2973124,39.7374453 L94.0862562,40.3783718 C94.36963,41.8460007 94.5844704,43.3376256 94.7307775,44.8532466 Z" id="Shape"></path>
            <path d="M70.7240899,8.72681857 L72.2672449,5.82407158 C70.8565363,5.06239076 69.4042457,4.37037588 67.910373,3.74802692 L66.6582921,6.79010578 C68.0489798,7.37220331 69.4042457,8.01777424 70.7240899,8.72681857 Z" id="Shape"></path>
            <path d="M66.6582921,6.79010578 L67.9173034,3.74802692 C66.4388315,3.12877423 64.9257079,2.58692812 63.3779326,2.1224886 L62.4284764,5.27371074 C63.8626499,5.70807233 65.2743471,6.21416779 66.6582921,6.79010578 Z" id="Shape"></path>
            <path d="M58.0554337,4.17995568 L58.6953348,0.952101015 C57.1306187,0.642474669 55.5412614,0.410254909 53.9272629,0.255441736 L53.6061573,3.52974035 C55.1123506,3.66597594 56.5954427,3.88271438 58.0554337,4.17995568 Z" id="Shape"></path>
            <path d="M62.4215461,5.26674415 L63.3710022,2.11552201 C61.8432479,1.65108249 60.2846921,1.26404956 58.6953348,0.954423213 L58.0554337,4.17995568 C59.5385258,4.46945631 60.9938966,4.83171914 62.4215461,5.26674415 Z" id="Shape"></path>
            <path d="M78.1926831,13.749732 L80.2717843,11.1953146 C79.0304839,10.1689033 77.7406712,9.20596534 76.4023461,8.30650081 L74.5796674,11.0536606 C75.8363685,11.8896517 77.0407071,12.7883422 78.1926831,13.749732 Z" id="Shape"></path>
            <path d="M81.5261753,16.7871664 L83.8362876,14.4649688 C82.6997124,13.3224476 81.5092345,12.2387554 80.2648539,11.2138922 L78.1857528,13.7683096 C79.3485094,14.7157662 80.4619835,15.7220518 81.5261753,16.7871664 Z" id="Shape"></path>
            <path d="M74.5796674,11.0536606 L76.400036,8.3181118 C75.0663311,7.41709913 73.6887341,6.58575239 72.2672449,5.82407158 L70.7240899,8.72681857 C72.0500944,9.4405073 73.3352869,10.2161213 74.5796674,11.0536606 Z" id="Shape"></path>
            <path d="M84.5501124,20.1380976 L87.091236,18.0481197 C86.0701663,16.7987774 84.9921139,15.6020716 83.8570787,14.4580022 L81.5469663,16.7801998 C82.5926772,17.8499589 83.5937258,18.9692581 84.5501124,20.1380976 Z" id="Shape"></path>
            <path d="M13.6781753,78.6017443 L11.1370517,80.6917221 C12.1581213,81.9410644 13.2361738,83.1377703 14.371209,84.2818396 L16.6813213,81.959642 C15.6340704,80.8852386 14.6330217,79.7659394 13.6781753,78.6017443 Z" id="Shape"></path>
            <path d="M74.5796674,87.6838591 L76.400036,90.4217301 C77.736821,89.5207174 79.0266337,88.5577795 80.2694742,87.5329163 L78.190373,84.9784989 C77.0399371,85.9414368 75.8363685,86.8432236 74.5796674,87.6838591 Z" id="Shape"></path>
            <path d="M78.1926831,84.9924321 L80.2717843,87.5468494 C81.5146247,86.5204381 82.7051026,85.4367459 83.843218,84.2957728 L81.5331056,81.9735752 C80.4642936,83.0247566 79.3508195,84.0310423 78.1926831,84.9924321 Z" id="Shape"></path>
            <path d="M66.6582921,91.9590249 L67.9173034,94.9894927 C69.409636,94.37024 70.8619266,93.6789992 72.2741753,92.9157703 L70.7310202,90.0130233 C69.4080959,90.7220676 68.0505199,91.3707348 66.6582921,91.9590249 Z" id="Shape"></path>
            <path d="M70.7240899,90.0130233 L72.2672449,92.9157703 C73.6887341,92.1509932 75.0663311,91.3196465 76.400036,90.4217301 L74.5796674,87.6838591 C73.336827,88.5213984 72.0516345,89.2977864 70.7240899,90.0130233 Z" id="Shape"></path>
            <path d="M53.6061573,95.2263569 L53.9272629,98.5029777 C55.5397213,98.3481645 57.1290787,98.1159448 58.6953348,97.8063184 L58.0554337,94.5784638 C56.5954427,94.86332 55.1123506,95.0792844 53.6061573,95.2263569 Z" id="Shape"></path>
            <path d="M62.4215461,93.4730977 L63.3710022,96.6219977 C64.9187775,96.1575581 66.4319011,95.615712 67.910373,94.9964593 L66.6582921,91.9590249 C65.278385,92.5271892 63.8661363,93.0318802 62.4215461,93.4730977 Z" id="Shape"></path>
            <path d="M81.5261753,81.9526754 L83.8362876,84.274873 C84.9728629,83.1323518 86.0509154,81.935646 87.0704449,80.6847555 L84.5293213,78.5947777 C83.5883356,79.7636172 82.5872869,80.8829164 81.5261753,81.9526754 Z" id="Shape"></path>
            <path d="M84.5501124,78.6017443 L87.091236,80.6917221 C88.1107655,79.443928 89.0686921,78.1473676 89.9650157,76.8020412 L87.2413933,74.9721494 C86.3989723,76.2338768 85.5018787,77.4437418 84.5501124,78.6017443 Z" id="Shape"></path>
            <path d="M92.9866427,62.7481013 L96.1191551,63.7025245 C96.5811775,62.1667778 96.9708165,60.6000685 97.2880719,59.0023966 L94.0770157,58.3591478 C93.7844015,59.8499987 93.4209438,61.3129832 92.9866427,62.7481013 Z" id="Shape"></path>
            <path d="M3.27342921,49.3699209 C3.27342921,47.8442371 3.34966292,46.3510641 3.49288989,44.8532466 L0.231011236,44.5304611 C0.0770037453,46.1234887 0,47.736642 0,49.3699209 L3.27342921,49.3699209 Z" id="Shape"></path>
            <path d="M91.4804494,67.0070117 L94.4951461,68.2726094 C95.111176,66.7864029 95.6502022,65.2653635 96.1122247,63.7094911 L92.9797124,62.7550679 C92.5454112,64.2010229 92.0456569,65.6183375 91.4804494,67.0070117 Z" id="Shape"></path>
            <path d="M89.5445753,71.0940795 L92.4322157,72.6453075 C93.1868524,71.2272188 93.8744959,69.7673306 94.4951461,68.2656428 L91.4804494,67.0070117 C90.896761,68.4049746 90.2514697,69.7673306 89.5445753,71.0940795 Z" id="Shape"></path>
            <path d="M31.5676854,91.9590249 L30.3132944,94.9987815 C31.7917663,95.6180342 33.3048899,96.1598803 34.8526652,96.6243198 L35.8067416,93.4730977 C34.3621513,93.0318802 32.9491326,92.5271892 31.5676854,91.9590249 Z" id="Shape"></path>
            <path d="M5.23933483,62.7481013 L2.10451236,63.7025245 C2.56653483,65.2583969 3.10556105,66.7794363 3.72159101,68.2656428 L6.7478382,67.0070117 C6.17468039,65.6135451 5.67121694,64.1921325 5.23933483,62.7481013 Z" id="Shape"></path>
            <path d="M4.15820225,58.3591478 L0.947146067,59.0023966 C1.25516105,60.5969722 1.64402996,62.1636816 2.11375281,63.7025245 L5.24857528,62.7481013 C4.81119401,61.3129832 4.44773633,59.8499987 4.15820225,58.3591478 Z" id="Shape"></path>
            <path d="M6.75476854,67.0070117 L3.72852135,68.2726094 C4.34455131,69.7696528 5.03296479,71.229541 5.7937618,72.652274 L8.68140225,71.1010461 C7.97604794,69.7712009 7.3338367,68.4065228 6.75476854,67.0070117 Z" id="Shape"></path>
            <path d="M8.68140225,71.0940795 L5.7937618,72.6453075 C6.5545588,74.074233 7.38157903,75.4590369 8.27482247,76.799719 L10.9961348,74.9698272 C10.1644944,73.7204849 9.39291685,72.428569 8.68140225,71.0940795 Z" id="Shape"></path>
            <path d="M44.6198202,95.2263569 L44.2987146,98.5029777 C45.8834517,98.6577909 47.4882097,98.7351975 49.1129888,98.7351975 L49.1129888,95.4423213 C47.5975551,95.4423213 46.0998322,95.3703331 44.6198202,95.2263569 Z" id="Shape"></path>
            <path d="M3.49288989,53.8865953 L0.231011236,54.2093807 C0.385018727,55.8302746 0.616029963,57.4279466 0.924044944,59.0023966 L4.15820225,58.3591478 C3.86404794,56.8915189 3.64227715,55.4006681 3.49288989,53.8865953 Z" id="Shape"></path>
            <path d="M3.27342921,49.3699209 L0,49.3699209 C0,51.0016518 0.0770037453,52.614805 0.231011236,54.2093807 L3.48826966,53.8865953 C3.34966292,52.4003888 3.27342921,50.8932826 3.27342921,49.3699209 Z" id="Shape"></path>
            <path d="M40.1682337,94.569175 L39.5306427,97.7970296 C41.0938187,98.106656 42.683176,98.3388757 44.2987146,98.4936889 L44.6198202,95.2170681 C43.113627,95.0777362 41.6297648,94.8617719 40.1682337,94.569175 Z" id="Shape"></path>
            <path d="M35.8067416,93.4730977 L34.8549753,96.6219977 C36.3842697,97.0864372 37.9435955,97.4781145 39.5329528,97.7970296 L40.1705438,94.569175 C38.6874517,94.2812225 37.2297708,93.9073487 35.8067416,93.4730977 Z" id="Shape"></path>
            <path d="M16.6998022,81.9526754 L14.3896899,84.274873 C15.5262652,85.4173942 16.7167431,86.5010865 17.9611236,87.5259497 L20.0402247,84.9715323 C18.8759281,84.0256238 17.7624539,83.0193382 16.6998022,81.9526754 Z" id="Shape"></path>
            <path d="M27.5018876,90.0130233 L25.9587326,92.9157703 C27.3694412,93.6743548 28.8209618,94.3655957 30.3132944,94.9894927 L31.5676854,91.9590249 C30.1769978,91.3722829 28.8217318,90.7236158 27.5018876,90.0130233 Z" id="Shape"></path>
            <path d="M20.0332944,84.9924321 L17.9541933,87.5468494 C19.1939536,88.5717126 20.4837663,89.5346506 21.8236315,90.4356632 L23.6416899,87.6977923 C22.3957693,86.847868 21.1929708,85.9460812 20.0332944,84.9924321 Z" id="Shape"></path>
            <path d="M29.0450427,11.6295656 L27.5018876,8.72681857 C26.1758831,9.4405073 24.8899206,10.2145732 23.644,11.0490162 L25.4643685,13.7868871 C26.6194247,13.0112731 27.8129828,12.292166 29.0450427,11.6295656 Z" id="Shape"></path>
            <path d="M53.2850517,6.78778358 L53.6061573,3.51116277 C52.1276854,3.36718652 50.6284225,3.290554 49.1129888,3.290554 L49.1129888,6.58343019 C50.5206172,6.58343019 51.9113049,6.65154799 53.2850517,6.78778358 Z" id="Shape"></path>
            <path d="M36.7538876,8.41564409 L35.8067416,5.26674415 C34.3700977,5.70316922 32.9560806,6.21159228 31.5699955,6.79010578 L32.8220764,9.83218463 C34.1034187,9.29807918 35.4140225,8.825899 36.7538876,8.41564409 Z" id="Shape"></path>
            <path d="M8.37184719,36.9461638 L5.23933483,35.9940628 C4.80734382,37.4268587 4.44234607,38.8921654 4.1489618,40.380694 L7.36001798,41.0239428 C7.63261124,39.6383649 7.96988764,38.2791052 8.37184719,36.9461638 Z" id="Shape"></path>
            <path d="M22.1100854,16.2948605 L20.0309843,13.7404432 C18.8713079,14.7002849 17.7601438,15.712763 16.6974921,16.7778776 L19.0076045,19.1000752 C19.9963326,18.1201079 21.0304929,17.1850363 22.1100854,16.2948605 Z" id="Shape"></path>
            <path d="M11.5690427,29.1969904 L8.68140225,27.6457624 C7.97450787,28.969415 7.33229663,30.331771 6.75476854,31.7328302 L9.78101573,32.9914613 C10.3169618,31.6941269 10.9129708,30.4293033 11.5690427,29.1969904 Z" id="Shape"></path>
            <path d="M44.9409258,6.78778358 L44.6198202,3.51116277 C43.113627,3.66597594 41.6297648,3.88581065 40.1682337,4.17066689 L40.8081348,7.39852155 C42.1649408,7.12914663 43.5425378,6.9255673 44.9409258,6.78778358 Z" id="Shape"></path>
            <path d="M89.8633708,36.9461638 L92.9866427,35.9940628 C92.5477213,34.5434633 92.0425768,33.1238265 91.471209,31.7351524 L88.4449618,32.9937835 C88.9762876,34.2818291 89.4490906,35.5992892 89.8633708,36.9461638 Z" id="Shape"></path>
            <path d="M6.54916854,49.3699209 C6.54916854,47.9533804 6.61693184,46.5554174 6.75245843,45.1760321 L3.49288989,44.8532466 C3.34966292,46.3394531 3.27342921,47.8442371 3.27342921,49.3699209 L6.54916854,49.3699209 Z" id="Shape"></path>
            <path d="M86.6569348,29.1969904 L89.5445753,27.6457624 C88.8330607,26.312821 88.0630232,25.020131 87.2344629,23.7676924 L84.5131506,25.5975841 C85.283188,26.7586829 85.9977828,27.958485 86.6569348,29.1969904 Z" id="Shape"></path>
            <path d="M69.1809348,11.6295656 L70.7240899,8.72681857 C69.4057858,8.01622611 68.0505199,7.37065518 66.6582921,6.79010578 L65.4039011,9.83218463 C66.697564,10.3709345 67.9565753,10.9700615 69.1809348,11.6295656 Z" id="Shape"></path>
            <path d="M76.1158921,16.2948605 L78.1949933,13.7404432 C77.0414772,12.7852459 75.8363685,11.8896517 74.5796674,11.0536606 L72.7685393,13.7915315 C73.9235955,14.5717899 75.0393798,15.4062329 76.1158921,16.2948605 Z" id="Shape"></path>
            <path d="M76.1158921,82.4380147 L78.1949933,84.9924321 C79.3546697,84.0356867 80.4658337,83.0239826 81.5284854,81.9573198 L79.218373,79.6351222 C78.2281049,80.619734 77.1939446,81.5540315 76.1158921,82.4380147 Z" id="Shape"></path>
            <path d="M89.8633708,61.7913559 L92.9981933,62.7481013 C93.4309543,61.3129832 93.794412,59.8499987 94.0885663,58.3591478 L90.8752,57.7182213 C90.6063578,59.0921914 90.2686512,60.4516347 89.8633708,61.7913559 Z" id="Shape"></path>
            <path d="M82.0089888,76.5140887 L84.5501124,78.6040665 C85.5018787,77.4414196 86.3958921,76.2307805 87.2321528,74.9721494 L84.5062202,73.1492243 C83.7300225,74.3103231 82.897612,75.4319446 82.0089888,76.5140887 Z" id="Shape"></path>
            <path d="M86.6569348,69.5428515 L89.5445753,71.0940795 C90.2514697,69.7688787 90.8936809,68.4065228 91.471209,67.0070117 L88.4449618,65.7460584 C87.9090157,67.0449409 87.3130067,68.3105386 86.6569348,69.5428515 Z" id="Shape"></path>
            <path d="M53.2850517,91.9590249 L53.6061573,95.2333235 C55.1123506,95.0877991 56.5954427,94.8687385 58.0554337,94.5761416 L57.4178427,91.3459647 C56.0625768,91.6106952 54.6849798,91.8150486 53.2850517,91.9590249 Z" id="Shape"></path>
            <path d="M44.9409258,91.9590249 L44.6198202,95.2333235 C46.0982921,95.3788479 47.596015,95.4523841 49.1129888,95.4539323 L49.1129888,92.1564117 C47.7038202,92.1564117 46.3131326,92.0906161 44.9409258,91.9590249 Z" id="Shape"></path>
            <path d="M6.75245843,53.5638098 L3.49288989,53.8865953 C3.64689738,55.4006681 3.86558801,56.8915189 4.1489618,58.3591478 L7.36001798,57.7182213 C7.09204494,56.3558654 6.88952509,54.9710615 6.75245843,53.5638098 Z" id="Shape"></path>
            <path d="M11.5690427,69.5428515 L8.68140225,71.0940795 C9.39137678,72.4270209 10.1614142,73.7189368 10.9915146,74.9698272 L13.7197573,73.1492243 C12.9450996,71.9834811 12.2281948,70.7813568 11.5690427,69.5428515 Z" id="Shape"></path>
            <path d="M36.7538876,90.3334866 L35.8067416,93.4730977 C37.2320809,93.9073487 38.6897618,94.2742559 40.1705438,94.569175 L40.8104449,91.3389981 C39.4320779,91.0649788 38.0798921,90.7298083 36.7538876,90.3334866 Z" id="Shape"></path>
            <path d="M22.1100854,82.4380147 L20.0309843,84.9924321 C21.1891206,85.9491775 22.3926891,86.847868 23.6416899,87.6885035 L25.4620584,84.9529547 C24.3039221,84.1696001 23.1865978,83.3312867 22.1100854,82.4380147 Z" id="Shape"></path>
            <path d="M29.0450427,87.1102763 L27.5018876,90.0130233 C28.8186517,90.7220676 30.1739176,91.3676386 31.5676854,91.9497361 L32.8197663,88.9076572 C31.5291835,88.3689074 30.2709423,87.7697804 29.0450427,87.1102763 Z" id="Shape"></path>
            <path d="M24.1868764,18.8376669 L22.1077753,16.2832496 C21.0297228,17.1718772 19.9978727,18.1115931 19.0122247,19.1023974 L21.3223371,21.424595 C22.2371416,20.5235824 23.191988,19.661273 24.1868764,18.8376669 Z" id="Shape"></path>
            <path d="M37.7056539,11.5668662 L36.7538876,8.41564409 C35.4140225,8.82435087 34.1049588,9.29653105 32.8266966,9.83218463 L34.0810876,12.8719413 C35.2592449,12.3796354 36.4674337,11.9446104 37.7056539,11.5668662 Z" id="Shape"></path>
            <path d="M30.5881978,14.5323126 L29.0450427,11.6295656 C27.8129828,12.292166 26.6194247,13.0128213 25.4643685,13.7915315 L27.282427,16.5270803 C28.3450787,15.8102953 29.4470022,15.1453727 30.5881978,14.5323126 Z" id="Shape"></path>
            <path d="M11.5066697,37.9029092 L8.37184719,36.9461638 C7.97142772,38.2791052 7.63415131,39.6375908 7.36001798,41.0216206 L10.5733843,41.6625471 C10.8228764,40.3853384 11.1370517,39.1313517 11.5066697,37.9029092 Z" id="Shape"></path>
            <path d="M9.82259775,49.3699209 C9.82259775,48.0625237 9.8872809,46.7713818 10.0097169,45.4988175 L6.75245843,45.1760321 C6.61847191,46.5554174 6.55070861,47.9533804 6.54916854,49.3699209 L9.82259775,49.3699209 Z" id="Shape"></path>
            <path d="M45.2620315,10.0620822 L44.9409258,6.78778358 C43.5409978,6.9255673 42.1634007,7.12914663 40.8081348,7.39852155 L41.4457258,10.6286984 C42.6978067,10.3779011 43.9699086,10.189029 45.2620315,10.0620822 Z" id="Shape"></path>
            <path d="M14.4566831,30.7482184 L11.5690427,29.1969904 C10.9129708,30.4354958 10.3169618,31.7003194 9.78101573,32.9914613 L12.8049528,34.2524146 C13.302397,33.0541606 13.8529738,31.8860952 14.4566831,30.7482184 Z" id="Shape"></path>
            <path d="M18.7396315,24.3134088 L16.1985079,22.223431 C15.3160449,23.3071232 14.4859446,24.4310669 13.7082067,25.5952619 L16.4295191,27.4228314 C17.1564345,26.3499761 17.9264719,25.3135019 18.7396315,24.3134088 Z" id="Shape"></path>
            <path d="M60.5249438,11.5668662 L61.4744,8.41564409 C60.1514757,8.01312984 58.80083,7.67408899 57.4224629,7.39852155 L56.7825618,10.6286984 C58.0485034,10.8794957 59.2982742,11.1953146 60.5249438,11.5668662 Z" id="Shape"></path>
            <path d="M86.7193079,37.9029092 L89.8633708,36.9461638 C89.456791,35.5992892 88.9878382,34.2833772 88.4565124,32.9984279 L85.4302652,34.2593812 C85.9215491,35.4437019 86.35123,36.6582113 86.7193079,37.9029092 Z" id="Shape"></path>
            <path d="M83.7692944,30.7482184 L86.6569348,29.1969904 C85.9962427,27.958485 85.2793378,26.7586829 84.5062202,25.5975841 L81.7779775,27.4251536 C82.4956524,28.4933645 83.1594247,29.6010528 83.7692944,30.7482184 Z" id="Shape"></path>
            <path d="M88.2139506,45.4988175 L91.4804494,45.1760321 C91.3433828,43.7687803 91.1400929,42.3839765 90.8705798,41.0216206 L87.6595236,41.6625471 C87.8966951,42.9211782 88.0815041,44.199935 88.2139506,45.4988175 Z" id="Shape"></path>
            <path d="M74.0391011,18.8376669 L76.1182022,16.2832496 C75.0401498,15.3946219 73.9220554,14.5601789 72.7639191,13.7799205 L70.9435506,16.5270803 C72.0131326,17.2469616 73.0457528,18.0202534 74.0391011,18.8376669 Z" id="Shape"></path>
            <path d="M52.9639461,10.0620822 L53.2850517,6.78778358 C51.9128449,6.65309612 50.5221573,6.58497832 49.1129888,6.58343019 L49.1129888,9.87398419 C50.4112719,9.87398419 51.6956944,9.93900572 52.9639461,10.0620822 Z" id="Shape"></path>
            <path d="M67.6354697,14.5323126 L69.1809348,11.6295656 C67.9488749,10.9700615 66.6898637,10.3709345 65.4039011,9.83218463 L64.1518202,12.8719413 C65.3438382,13.3688916 66.5050547,13.9223487 67.6354697,14.5323126 Z" id="Shape"></path>
            <path d="M79.484036,24.3134088 L82.0251596,22.223431 C81.1396165,21.1397388 80.204021,20.1024905 79.218373,19.1116862 L76.9082607,21.4338838 C77.8092045,22.3534741 78.6677963,23.3133158 79.484036,24.3134088 Z" id="Shape"></path>
            <path d="M74.0391011,79.8998527 L76.1182022,82.4542701 C77.1962547,81.5640944 78.2273348,80.6236043 79.2114427,79.6328 L76.9013303,77.3106024 C75.9942262,78.2162595 75.0401498,79.0793429 74.0391011,79.8998527 Z" id="Shape"></path>
            <path d="M79.484036,74.426433 L82.0251596,76.5164108 C82.9076225,75.4327186 83.7377228,74.308775 84.5154607,73.1445799 L81.7779775,71.312366 C81.0649228,72.3898657 80.3002757,73.427888 79.484036,74.426433 Z" id="Shape"></path>
            <path d="M67.6354697,84.2075293 L69.1809348,87.1102763 C70.4129948,86.4461278 71.6065528,85.7254725 72.761609,84.9483103 L70.9435506,82.205795 C69.8762787,82.9272244 68.773585,83.5944691 67.6354697,84.2075293 Z" id="Shape"></path>
            <path d="M64.1518202,85.8655784 L65.4039011,88.9076572 C66.697564,88.3689074 67.9565753,87.7697804 69.1809348,87.1102763 L67.6354697,84.2075293 C66.5065948,84.8143969 65.3453783,85.36708 64.1518202,85.8655784 Z" id="Shape"></path>
            <path d="M60.5249438,87.1729756 L61.4697798,90.3334866 C62.811185,89.9247798 64.1202487,89.4533737 65.3969708,88.9192682 L64.1448899,85.8771894 C62.9636524,86.3617546 61.7570037,86.7936834 60.5249438,87.1729756 Z" id="Shape"></path>
            <path d="M10.0097169,53.2410243 L6.75245843,53.5638098 C6.88952509,54.9695134 7.09204494,56.3543172 7.36001798,57.7182213 L10.5733843,57.0749726 C10.3238921,55.8194377 10.136003,54.541455 10.0097169,53.2410243 Z" id="Shape"></path>
            <path d="M88.2139506,53.2410243 L91.4804494,53.5638098 C91.614436,52.1844244 91.6821993,50.7864615 91.6837393,49.3699209 L88.4033798,49.3699209 C88.4033798,50.6703516 88.3402367,51.9607194 88.2139506,53.2410243 Z" id="Shape"></path>
            <path d="M52.9639461,88.6754375 L53.2850517,91.9590249 C54.6834397,91.8212411 56.0610367,91.6168878 57.4178427,91.3459647 L56.7779416,88.11811 C55.5289408,88.3565223 54.257609,88.5422981 52.9639461,88.6754375 Z" id="Shape"></path>
            <path d="M87.6525933,57.0749726 L90.8636494,57.7182213 C91.1316225,56.3543172 91.3349124,54.9695134 91.4735191,53.5638098 L88.2139506,53.2410243 C88.0815041,54.5399068 87.894385,55.8178896 87.6525933,57.0749726 Z" id="Shape"></path>
            <path d="M86.7193079,60.8415771 L89.8633708,61.7913559 C90.2686512,60.4516347 90.6063578,59.0921914 90.8752,57.7182213 L87.6641438,57.0749726 C87.4038712,58.3475368 87.0889258,59.6030717 86.7193079,60.8415771 Z" id="Shape"></path>
            <path d="M83.7692944,67.9893013 L86.6569348,69.5428515 C87.3130067,68.3043461 87.9090157,67.0387484 88.4449618,65.7460584 L85.4187146,64.4874273 C84.9243506,65.6856813 84.3745438,66.8529726 83.7692944,67.9893013 Z" id="Shape"></path>
            <path d="M14.4566831,67.9893013 L11.5690427,69.5428515 C12.2281948,70.7813568 12.9450996,71.9811589 13.7197573,73.1422577 L16.4410697,71.312366 C15.728015,70.242607 15.0665528,69.1349188 14.4566831,67.9893013 Z" id="Shape"></path>
            <path d="M11.5066697,60.8415771 L8.37184719,61.7960003 C8.77842697,63.144423 9.24814981,64.460335 9.78101573,65.7437362 L12.8049528,64.4851051 C12.315209,63.2945918 11.8824479,62.0800824 11.5066697,60.8415771 Z" id="Shape"></path>
            <path d="M21.3292674,77.2966692 L19.0191551,79.6188668 C20.0032629,80.6096711 21.0351131,81.5501612 22.1147056,82.4403369 L24.1938067,79.8859196 C23.1958382,79.0762467 22.2409918,78.2131632 21.3292674,77.2966692 Z" id="Shape"></path>
            <path d="M18.7396315,74.426433 L16.1985079,76.5164108 C17.0825109,77.6001031 18.0173363,78.6365773 19.0029843,79.6258334 L21.3130966,77.3036358 C20.416773,76.3917862 19.5589513,75.4327186 18.7396315,74.426433 Z" id="Shape"></path>
            <path d="M24.1868764,79.8998527 L22.1077753,82.4542701 C23.1858277,83.3413496 24.3039221,84.1757926 25.4620584,84.9575991 L27.282427,82.205795 C26.213615,81.48901 25.1817648,80.7203626 24.1868764,79.8998527 Z" id="Shape"></path>
            <path d="M45.2620315,88.6754375 L44.9409258,91.9590249 C46.3131326,92.0937123 47.7038202,92.1618301 49.1129888,92.1633783 L49.1129888,88.8658577 C47.8131655,88.8658577 46.5295131,88.8023843 45.2620315,88.6754375 Z" id="Shape"></path>
            <path d="M37.7056539,87.1729756 L36.7538876,90.3334866 C38.0798921,90.7375489 39.4313079,91.0765898 40.8081348,91.3506091 L41.4457258,88.1227544 C40.175164,87.8611202 38.9284734,87.5445272 37.7056539,87.1729756 Z" id="Shape"></path>
            <path d="M30.5881978,84.2075293 L29.0450427,87.1102763 C30.2771026,87.7682323 31.5353438,88.3673593 32.8197663,88.9076572 L34.0741573,85.8655784 C32.8821393,85.3686281 31.7201528,84.8159451 30.5881978,84.2075293 Z" id="Shape"></path>
            <path d="M21.2715146,26.4010645 L18.730391,24.3110867 C17.9172315,25.3096316 17.147194,26.3468799 16.4202787,27.4228314 L19.1739326,29.2596897 C19.8238442,28.2704336 20.5230382,27.3175585 21.2715146,26.4010645 Z" id="Shape"></path>
            <path d="M32.1313528,17.4350596 L30.5881978,14.5323126 C29.4516225,15.1515653 28.3496989,15.8164878 27.282427,16.5270803 L29.1074157,19.2742401 C30.0822831,18.6116397 31.0902622,17.9985795 32.1313528,17.4350596 Z" id="Shape"></path>
            <path d="M38.6551101,14.7180884 L37.7056539,11.5668662 C36.473594,11.9430622 35.2630951,12.3780873 34.0741573,12.8719413 L35.3262382,15.9140201 C36.411991,15.4635138 37.5208449,15.0617736 38.6551101,14.7180884 Z" id="Shape"></path>
            <path d="M13.096027,49.3699209 C13.096027,48.171667 13.1560899,46.9873462 13.2692854,45.821603 L10.0097169,45.4988175 C9.8872809,46.7713818 9.82259775,48.0532349 9.82259775,49.3699209 L13.096027,49.3699209 Z" id="Shape"></path>
            <path d="M45.5831371,13.338703 L45.2620315,10.0620822 C43.9714487,10.1905771 42.6993468,10.3794492 41.4457258,10.6286984 L42.085627,13.8565531 C43.2314427,13.6289777 44.3972794,13.456361 45.5831371,13.338703 Z" id="Shape"></path>
            <path d="M14.6414921,38.8573324 L11.5066697,37.9029092 C11.1370517,39.1313517 10.813636,40.3853384 10.5826247,41.6625471 L13.7936809,42.3057958 C14.0185318,41.1354082 14.3011356,39.9859204 14.6414921,38.8573324 Z" id="Shape"></path>
            <path d="M17.3443236,32.2994464 L14.4566831,30.7482184 C13.8514337,31.8845471 13.3008569,33.0526125 12.8049528,34.2524146 L15.8312,35.5110457 C16.283982,34.4118721 16.7883566,33.341339 17.3443236,32.2994464 Z" id="Shape"></path>
            <path d="M13.2692854,52.9182389 L10.0097169,53.2410243 C10.1375431,54.5399068 10.3254322,55.8178896 10.5733843,57.0749726 L13.7844404,56.4294016 C13.5580494,55.2791398 13.3863311,54.1087522 13.2692854,52.9182389 Z" id="Shape"></path>
            <path d="M80.8793438,32.2994464 L83.7692944,30.7482184 C83.1532644,29.6056972 82.4910322,28.4980089 81.7825978,27.4251536 L79.0612854,29.2596897 C79.7158172,30.2396571 80.3218367,31.2529093 80.8793438,32.2994464 Z" id="Shape"></path>
            <path d="M83.5844854,38.8573324 L86.7193079,37.9029092 C86.3435296,36.6644038 85.9099985,35.4475723 85.4187146,34.2524146 L82.3947775,35.5110457 C82.8429393,36.6071229 83.2395086,37.7225518 83.5844854,38.8573324 Z" id="Shape"></path>
            <path d="M71.96,21.3827955 L74.0391011,18.8283781 C73.0457528,18.0109646 72.0131326,17.2376728 70.9435506,16.5061805 L69.123182,19.2742401 C70.1057498,19.9275517 71.0513558,20.6304035 71.96,21.3827955 Z" id="Shape"></path>
            <path d="M59.5685573,14.7180884 L60.5249438,11.5668662 C59.3028944,11.1953146 58.0531236,10.870207 56.7825618,10.6379872 L56.1357303,13.8565531 C57.3031071,14.0887728 58.4473828,14.3759513 59.5685573,14.7180884 Z" id="Shape"></path>
            <path d="M52.6428404,13.338703 L52.9639461,10.0620822 C51.6956944,9.93900572 50.4112719,9.87398419 49.1129888,9.87398419 L49.1129888,13.1645382 C50.3050067,13.1645382 51.4808539,13.2365263 52.6428404,13.338703 Z" id="Shape"></path>
            <path d="M66.0923146,17.4350596 L67.6354697,14.5323126 C66.5065948,13.9238968 65.3453783,13.3704397 64.1518202,12.8719413 L62.8974292,15.9140201 C63.9908824,16.3691709 65.0558442,16.876184 66.0923146,17.4350596 Z" id="Shape"></path>
            <path d="M26.2636674,21.3827955 L24.1845663,18.8283781 C23.191218,19.6504361 22.2386816,20.5181639 21.3269573,21.4315616 L23.6370697,23.7537592 C24.487191,22.9317013 25.3534831,22.1351875 26.2636674,21.3827955 Z" id="Shape"></path>
            <path d="M76.9544629,72.3364552 L79.484036,74.426433 C80.3002757,73.427888 81.0664629,72.3898657 81.7825978,71.312366 L79.0612854,69.4847965 C78.4082936,70.4725046 77.7060195,71.4230575 76.9544629,72.3364552 Z" id="Shape"></path>
            <path d="M66.0923146,81.3024601 L67.6354697,84.2075293 C68.7720449,83.5882766 69.8747386,82.92258 70.9435506,82.2104394 L69.123182,79.4748906 C68.1467745,80.1328466 67.1364854,80.7420364 66.0923146,81.3024601 Z" id="Shape"></path>
            <path d="M59.5685573,84.0217535 L60.5249438,87.1729756 C61.7570037,86.7952315 62.9675026,86.3594324 64.1564404,85.8655784 L62.9020494,82.8234995 C61.8162966,83.2771021 60.7051326,83.6765201 59.5685573,84.0217535 Z" id="Shape"></path>
            <path d="M80.8793438,66.4380733 L83.7692944,67.9893013 C84.3745438,66.8545207 84.9243506,65.6872294 85.4187146,64.4874273 L82.3947775,63.226474 C81.9404554,64.3256475 81.4353109,65.3961806 80.8793438,66.4380733 Z" id="Shape"></path>
            <path d="M71.96,77.3570464 L74.0391011,79.8998527 C75.0324494,79.0808911 75.9842157,78.2131632 76.8944,77.2966692 L74.5842876,74.9744716 C73.748027,75.8104628 72.8732644,76.6046544 71.96,77.3570464 Z" id="Shape"></path>
            <path d="M84.9566921,52.9182389 L88.2139506,53.2410243 C88.3386966,51.9653638 88.4018397,50.674996 88.4033798,49.3699209 L85.1276404,49.3699209 C85.1276404,50.5666268 85.0706577,51.7493994 84.9566921,52.9182389 Z" id="Shape"></path>
            <path d="M21.2715146,72.3364552 L18.730391,74.426433 C19.5481708,75.424978 20.4113828,76.3817234 21.320027,77.2966692 L23.6301393,74.9744716 C22.8077393,74.1338361 22.0215311,73.2544973 21.2715146,72.3364552 Z" id="Shape"></path>
            <path d="M26.2636674,77.3570464 L24.1845663,79.8998527 C25.1779146,80.7203626 26.2097648,81.4905581 27.2801169,82.2104394 L29.1074157,79.4748906 C28.1233079,78.8184827 27.1753918,78.1125347 26.2636674,77.3570464 Z" id="Shape"></path>
            <path d="M52.6428404,85.4011389 L52.9639461,88.6754375 C54.2560689,88.5500388 55.5274007,88.3619408 56.7779416,88.1111435 L56.1357303,84.8832888 C54.9914547,85.1108642 53.8271581,85.2834808 52.6428404,85.4011389 Z" id="Shape"></path>
            <path d="M17.3443236,66.4380733 L14.4566831,67.9893013 C15.0727131,69.1318225 15.7341753,70.2395107 16.4410697,71.312366 L19.1739326,69.4847965 C18.5147805,68.503281 17.9049109,67.4877066 17.3443236,66.4380733 Z" id="Shape"></path>
            <path d="M14.6414921,59.8801873 L11.5066697,60.8415771 C11.8809079,62.0800824 12.3136689,63.296914 12.8049528,64.4920717 L15.8312,63.2311184 C15.3830382,62.1373633 14.9833888,61.0203863 14.6414921,59.8801873 Z" id="Shape"></path>
            <path d="M45.5831371,85.4011389 L45.2620315,88.6754375 C46.527973,88.8008361 47.8116255,88.8643095 49.1129888,88.8658577 L49.1129888,85.5729815 C47.9209708,85.5729815 46.7443536,85.5157006 45.5831371,85.4011389 Z" id="Shape"></path>
            <path d="M32.1313528,81.3024601 L30.5881978,84.2075293 C31.7186127,84.8143969 32.8805993,85.36708 34.0741573,85.8655784 L35.3262382,82.8234995 C34.232785,82.3683488 33.1678232,81.8613357 32.1313528,81.3024601 Z" id="Shape"></path>
            <path d="M38.6551101,84.0217535 L37.7056539,87.1729756 C38.9269333,87.5445272 40.173624,87.8541536 41.4457258,88.1018547 L42.085627,84.874 C40.9213303,84.6433284 39.7778247,84.3592462 38.6551101,84.0217535 Z" id="Shape"></path>
            <path d="M39.6068764,17.8669883 L38.6551101,14.7180884 C37.5208449,15.0617736 36.411991,15.4635138 35.3262382,15.9140201 L36.5806292,18.956099 C37.57059,18.5423264 38.5806131,18.178831 39.6068764,17.8669883 Z" id="Shape"></path>
            <path d="M23.7941573,28.4887201 L21.2530337,26.3987423 C20.518418,27.3152363 19.8253843,28.2688854 19.1739326,29.2596897 L21.8952449,31.0872592 C22.4881738,30.1877947 23.1211446,29.321615 23.7941573,28.4887201 Z" id="Shape"></path>
            <path d="M36.5806292,18.956099 L35.3262382,15.9140201 C34.2343251,16.3691709 33.1693633,16.876184 32.1313528,17.4350596 L33.676818,20.3378066 C34.6178037,19.8315675 35.5857408,19.3709983 36.5806292,18.956099 Z" id="Shape"></path>
            <path d="M33.676818,20.3378066 L32.1313528,17.4350596 C31.0902622,17.9970314 30.0822831,18.6100915 29.1074157,19.2742401 L30.9254742,22.0097888 C31.8125573,21.4075656 32.7296719,20.8502382 33.676818,20.3378066 Z" id="Shape"></path>
            <path d="M28.3404584,23.9186353 L26.2613573,21.3642179 C25.351173,22.1166099 24.4756404,22.9131237 23.644,23.751437 L25.9541124,26.0736346 C26.7164494,25.3274351 27.5118981,24.609102 28.3404584,23.9186353 Z" id="Shape"></path>
            <path d="M16.5265438,52.5954534 L13.2692854,52.9182389 C13.384791,54.107204 13.5565094,55.2791398 13.7844404,56.434046 L16.9954966,55.7907973 C16.7906667,54.7442602 16.6343491,53.6791456 16.5265438,52.5954534 Z" id="Shape"></path>
            <path d="M16.3717663,49.3699209 C16.3717663,48.2862287 16.4233588,47.2110512 16.5265438,46.1443885 L13.2692854,45.821603 C13.1560899,46.9827018 13.096027,48.171667 13.096027,49.3699209 L16.3717663,49.3699209 Z" id="Shape"></path>
            <path d="M20.231964,33.8529966 L17.3443236,32.2994464 C16.7898966,33.3428872 16.2855221,34.4134203 15.8312,35.5110457 L18.8574472,36.771999 C19.2686472,35.773454 19.7268195,34.8004532 20.231964,33.8529966 Z" id="Shape"></path>
            <path d="M17.7740045,39.8140778 L14.6414921,38.8573324 C14.3011356,39.9843723 14.0154517,41.1338601 13.7844404,42.3057958 L16.9954966,42.9467224 C17.2064869,41.8831559 17.4659895,40.838941 17.7740045,39.8140778 Z" id="Shape"></path>
            <path d="M76.3376629,31.0826148 L79.0612854,29.2596897 C78.4021333,28.2735298 77.6998592,27.3222029 76.9544629,26.4057089 L74.4133393,28.4956867 C75.0986727,29.3223891 75.7401139,30.1846984 76.3376629,31.0826148 Z" id="Shape"></path>
            <path d="M74.4225798,28.4887201 L76.9637034,26.3987423 C76.2129169,25.4837964 75.4228584,24.6036835 74.5889079,23.7676924 L72.2787955,26.08989 C73.0272719,26.8562152 73.7418667,27.6558253 74.4225798,28.4887201 Z" id="Shape"></path>
            <path d="M77.9917034,33.8529966 L80.8793438,32.2994464 C80.3218367,31.2529093 79.7158172,30.238109 79.0612854,29.2550453 L76.3376629,31.0826148 C76.9336719,31.977435 77.4850187,32.9008956 77.9917034,33.8529966 Z" id="Shape"></path>
            <path d="M69.883209,23.9186353 L71.9623101,21.3642179 C71.055206,20.613374 70.1096,19.9074259 69.1254921,19.2463737 L67.3074337,21.9819225 C68.197597,22.5965308 69.0561888,23.2421017 69.883209,23.9186353 Z" id="Shape"></path>
            <path d="M80.451973,39.8140778 L83.5844854,38.8573324 C83.2395086,37.7163593 82.8429393,36.6009304 82.3947775,35.5110457 L79.3685303,36.771999 C79.7781903,37.7612551 80.1393378,38.7752814 80.451973,39.8140778 Z" id="Shape"></path>
            <path d="M52.3217348,16.6130016 L52.6428404,13.338703 C51.4877843,13.2249153 50.3050067,13.1645382 49.1129888,13.1645382 L49.1129888,16.4574144 C50.1972015,16.4574144 51.2667835,16.5092768 52.3217348,16.6130016 Z" id="Shape"></path>
            <path d="M45.9042427,16.6130016 L45.5831371,13.338703 C44.3988195,13.4548129 43.2329828,13.6274296 42.085627,13.8565531 L42.723218,17.0844077 C43.7673888,16.8785062 44.8277303,16.7213708 45.9042427,16.6130016 Z" id="Shape"></path>
            <path d="M64.5491596,20.3378066 L66.0923146,17.4350596 C65.0573843,16.8777321 63.9924225,16.370719 62.8974292,15.9140201 L61.6453483,18.956099 C62.6386966,19.3694502 63.6066337,19.8300194 64.5491596,20.3378066 Z" id="Shape"></path>
            <path d="M58.6191011,17.8669883 L59.5685573,14.7180884 C58.4473828,14.3759513 57.3046472,14.0887728 56.1403506,13.8565531 L55.5004494,17.0844077 C56.5584809,17.2957277 57.6003416,17.5558138 58.6191011,17.8669883 Z" id="Shape"></path>
            <path d="M17.7740045,58.925764 L14.6414921,59.8801873 C14.9833888,61.0203863 15.3830382,62.1373633 15.8312,63.226474 L18.8574472,61.9678429 C18.4524075,60.9754905 18.0912599,59.9614642 17.7740045,58.925764 Z" id="Shape"></path>
            <path d="M69.883209,74.8119178 L71.9623101,77.3663352 C72.8740345,76.612395 73.7472569,75.8166553 74.5819775,74.979116 L72.2718652,72.6569184 C71.5095281,73.4093105 70.7133094,74.1276436 69.883209,74.8119178 Z" id="Shape"></path>
            <path d="M74.4225798,70.2487995 L76.9637034,72.3387774 C77.7106397,71.4269278 78.4129139,70.4763749 79.0705258,69.4871187 L76.3469034,67.6595492 C75.7447341,68.5543694 75.1032929,69.4174528 74.4225798,70.2487995 Z" id="Shape"></path>
            <path d="M58.6191011,80.8705313 L59.5685573,84.0217535 C60.7020524,83.674972 61.8116764,83.275554 62.8974292,82.8234995 L61.6453483,79.7837429 C60.6581603,80.1955459 59.6494112,80.5578087 58.6191011,80.8705313 Z" id="Shape"></path>
            <path d="M64.5491596,78.3997131 L66.0923146,81.3024601 C67.1334052,80.7420364 68.1436944,80.1328466 69.123182,79.4748906 L67.3051236,76.7370196 C66.4165004,77.3361466 65.4978457,77.8903778 64.5491596,78.3997131 Z" id="Shape"></path>
            <path d="M81.6971236,46.1443885 L84.9566921,45.821603 C84.8411865,44.6310897 84.6694682,43.459154 84.4415371,42.3057958 L81.2304809,42.9467224 C81.4414712,43.9963557 81.5970187,45.0622444 81.6971236,46.1443885 Z" id="Shape"></path>
            <path d="M80.451973,39.8140778 C80.759988,40.838941 81.0194906,41.8831559 81.2304809,42.9467224 L84.4415371,42.3057958 C84.2105258,41.1354082 83.9248419,39.9859204 83.5844854,38.8573324 L80.451973,39.8140778 Z" id="Shape"></path>
            <path d="M80.451973,58.925764 L83.5844854,59.8801873 C83.9248419,58.7531474 84.2105258,57.6044336 84.4415371,56.434046 L81.2304809,55.7907973 C81.0202607,56.8543638 80.759218,57.9016749 80.451973,58.925764 Z" id="Shape"></path>
            <path d="M81.6971236,52.5954534 L84.9566921,52.9182389 C85.0706577,51.7493994 85.1276404,50.5666268 85.1276404,49.3699209 L81.8542112,49.3699209 C81.8542112,50.4598057 81.8018487,51.5349832 81.6971236,52.5954534 Z" id="Shape"></path>
            <path d="M81.2304809,55.7907973 L84.4415371,56.434046 C84.6679281,55.2791398 84.8396464,54.107204 84.9566921,52.9182389 L81.6971236,52.5954534 C81.5970187,53.6775975 81.4414712,54.7427121 81.2304809,55.7907973 Z" id="Shape"></path>
            <path d="M77.9917034,64.8868453 L80.8793438,66.4380733 C81.4353109,65.3977288 81.9404554,64.3271957 82.3947775,63.226474 L79.3685303,61.9678429 C78.9557903,62.9663879 78.4968479,63.9393887 77.9917034,64.8868453 Z" id="Shape"></path>
            <path d="M28.3404584,74.8119178 L26.2613573,77.3663352 C27.1730816,78.1156309 28.1217678,78.8184827 29.1074157,79.4748906 L30.9254742,76.7370196 C30.0306906,76.1378926 29.1690187,75.496192 28.3404584,74.8119178 Z" id="Shape"></path>
            <path d="M23.7941573,70.2487995 L21.2530337,72.3387774 C22.0015101,73.2552714 22.7931086,74.133062 23.6278292,74.9721494 L25.9379416,72.6499518 C25.1956255,71.8836266 24.4810307,71.0832425 23.7941573,70.2487995 Z" id="Shape"></path>
            <path d="M20.231964,64.8868453 L17.3443236,66.4380733 C17.9033708,67.4846103 18.5101603,68.5001847 19.1646921,69.4847965 L21.8860045,67.657227 C21.2930757,66.763955 20.7417288,65.8404944 20.231964,64.8868453 Z" id="Shape"></path>
            <path d="M45.9042427,82.124518 L45.5831371,85.4011389 C46.7458936,85.5157006 47.9225109,85.5729815 49.1129888,85.5729815 L49.1129888,82.2824275 C48.0303161,82.2824275 46.9607341,82.229791 45.9042427,82.124518 Z" id="Shape"></path>
            <path d="M52.3217348,82.124518 L52.6428404,85.4011389 C53.825618,85.285029 54.9914547,85.1124123 56.1403506,84.8832888 L55.5004494,81.6531119 C54.449424,81.8637995 53.3885083,82.0211342 52.3217348,82.124518 Z" id="Shape"></path>
            <path d="M39.6068764,80.8705313 L38.6551101,84.0217535 C39.7778247,84.3638906 40.9213303,84.651069 42.085627,84.8832888 L42.723218,81.6531119 C41.671996,81.4451458 40.6318911,81.183953 39.6068764,80.8705313 Z" id="Shape"></path>
            <path d="M26.3352809,30.5763758 L23.8057079,28.4863979 C23.1265348,29.3177447 22.4874037,30.1823762 21.8883146,31.0802926 L24.6119371,32.9101844 C25.144803,32.1036077 25.7192509,31.3256715 26.3352809,30.5763758 Z" id="Shape"></path>
            <path d="M23.1219146,35.4042246 L20.231964,33.8529966 C19.7283596,34.7973569 19.2663371,35.7703577 18.8458966,36.771999 L21.8721438,38.0306301 C22.2445551,37.1346023 22.661675,36.2580209 23.1219146,35.4042246 Z" id="Shape"></path>
            <path d="M30.4195596,26.4730526 L28.3404584,23.9302462 C27.5134382,24.6129723 26.7202996,25.3359499 25.9610427,26.0991788 L28.2711551,28.4213764 C28.9549483,27.7417466 29.6710831,27.0923053 30.4195596,26.4730526 Z" id="Shape"></path>
            <path d="M35.219973,23.2405536 L33.676818,20.3378066 C32.7296719,20.84869 31.8110172,21.4029212 30.9208539,22.0005 L32.7412225,24.738371 C33.5405213,24.1918805 34.3667715,23.692608 35.219973,23.2405536 Z" id="Shape"></path>
            <path d="M19.7861124,52.2726679 L16.5265438,52.5954534 C16.632809,53.6791456 16.7868165,54.7442602 16.9885663,55.7907973 L20.1996225,55.1498708 C20.0194337,54.2055104 19.881597,53.2464428 19.7861124,52.2726679 Z" id="Shape"></path>
            <path d="M20.908827,40.768501 L17.7740045,39.8140778 C17.4659895,40.838941 17.2064869,41.8831559 16.9954966,42.9467224 L20.2065528,43.5899711 C20.395982,42.6316776 20.6300734,41.6911875 20.908827,40.768501 Z" id="Shape"></path>
            <path d="M19.6359551,49.3699209 C19.6359551,48.3899535 19.6829273,47.4215971 19.7768719,46.4648517 L16.5173034,46.1443885 C16.4156584,47.2048587 16.3640659,48.2800362 16.3625258,49.3699209 L19.6359551,49.3699209 Z" id="Shape"></path>
            <path d="M57.6673348,21.0182105 L58.6191011,17.8669883 C57.6003416,17.5558138 56.5584809,17.2957277 55.5004494,17.0844077 L54.8628584,20.3122624 C55.8146247,20.5026826 56.7494502,20.7379986 57.6673348,21.0182105 Z" id="Shape"></path>
            <path d="M71.8906966,30.5763758 L74.4318202,28.4863979 C73.749567,27.6550512 73.0303521,26.8577634 72.2741753,26.0945344 L69.9640629,28.416732 C70.6316854,29.1087469 71.2785169,29.8286281 71.8906966,30.5763758 Z" id="Shape"></path>
            <path d="M67.806418,26.4730526 L69.8855191,23.9302462 C69.0584989,23.2475202 68.1991371,22.6050455 67.3074337,22.0028222 L65.4870652,24.7406932 C66.2894442,25.2763468 67.0625618,25.8537999 67.806418,26.4730526 Z" id="Shape"></path>
            <path d="M75.1040629,35.4042246 L77.9917034,33.8529966 C77.4865588,32.9008956 76.935212,31.977435 76.3376629,31.0826148 L73.6163506,32.9125066 C74.1546067,33.7159869 74.6489708,34.5473337 75.1040629,35.4042246 Z" id="Shape"></path>
            <path d="M20.908827,57.9690186 L17.7740045,58.925764 C18.0820195,59.9614642 18.443167,60.9754905 18.8574472,61.9678429 L21.8836944,60.7068896 C21.5124231,59.8116064 21.1870406,58.8977842 20.908827,57.9690186 Z" id="Shape"></path>
            <path d="M52.0006292,19.8896224 L52.3217348,16.6130016 C51.2652434,16.5108249 50.1956614,16.4589625 49.1129888,16.4574144 L49.1129888,19.7386796 C50.0878562,19.7386796 51.050403,19.7889939 52.0006292,19.8896224 Z" id="Shape"></path>
            <path d="M46.2253483,19.8896224 L45.9042427,16.6130016 C44.8261903,16.7198227 43.7658487,16.8746359 42.723218,17.0774411 L43.3631191,20.3052958 C44.3010247,20.1241644 45.2551011,19.9856066 46.2253483,19.8896224 Z" id="Shape"></path>
            <path d="M63.0060045,23.2405536 L64.5491596,20.3378066 C63.6066337,19.8315675 62.6386966,19.367128 61.6453483,18.944488 L60.3909573,21.9865669 C61.2857408,22.3658591 62.1574232,22.7838547 63.0060045,23.2405536 Z" id="Shape"></path>
            <path d="M71.8906966,68.1611439 L74.4318202,70.2511217 C75.1109933,69.419775 75.7493543,68.5559175 76.3469034,67.6595492 L73.625591,65.8296575 C73.0780944,66.6331379 72.5028764,67.4133963 71.8906966,68.1611439 Z" id="Shape"></path>
            <path d="M75.1040629,63.3356173 L77.9917034,64.8868453 C78.4968479,63.9393887 78.9588704,62.9663879 79.3777708,61.9678429 L76.3515236,60.7068896 C75.979873,61.6036305 75.5635253,62.4809846 75.1040629,63.3356173 Z" id="Shape"></path>
            <path d="M63.0060045,75.4969661 L64.5491596,78.3997131 C65.4963056,77.8919259 66.4149603,77.3376947 67.3051236,76.7370196 L65.4847551,74.0014709 C64.6854562,74.5386726 63.859206,75.037171 63.0060045,75.4969661 Z" id="Shape"></path>
            <path d="M67.806418,72.2667892 L69.8855191,74.8212066 C70.7156195,74.1353842 71.5095281,73.4124067 72.2672449,72.652274 L69.9571326,70.3300764 C69.2717993,71.00661 68.5548944,71.6521809 67.806418,72.2667892 Z" id="Shape"></path>
            <path d="M76.3422831,38.0306301 C76.708821,38.9223539 77.0337768,39.8349776 77.3171506,40.768501 L80.451973,39.8140778 C80.1439581,38.7768296 79.7828105,37.7628033 79.3685303,36.771999 L76.3422831,38.0306301 Z" id="Shape"></path>
            <path d="M78.4398652,46.4648517 L81.6971236,46.1443885 C81.5939386,45.0606963 81.4399311,43.9948076 81.2351011,42.9467224 L78.0217348,43.5899711 C78.2050037,44.5327833 78.3443805,45.4910769 78.4398652,46.4648517 Z" id="Shape"></path>
            <path d="M30.4195596,72.2667892 L28.3404584,74.8212066 C29.1674787,75.5039327 30.0276105,76.1456333 30.9208539,76.7463084 L32.7412225,74.0107596 C31.9373034,73.462721 31.1634157,72.8813975 30.4195596,72.2667892 Z" id="Shape"></path>
            <path d="M57.6673348,77.7216314 L58.6191011,80.8705313 C59.6494112,80.560905 60.6581603,80.1986422 61.6453483,79.7837429 L60.3909573,76.741664 C59.5038742,77.1116675 58.596,77.4383233 57.6673348,77.7216314 Z" id="Shape"></path>
            <path d="M26.3352809,68.1611439 L23.8057079,70.2511217 C24.4848809,71.0855647 25.2040959,71.8836266 25.9633528,72.6453075 L28.2734652,70.3231099 C27.5973723,69.631095 26.9513109,68.9104396 26.3352809,68.1611439 Z" id="Shape"></path>
            <path d="M23.1219146,63.3356173 L20.231964,64.8868453 C20.7401888,65.8389463 21.2915356,66.7624069 21.8860045,67.657227 L24.609627,65.8273353 C24.0725927,65.022288 23.5760649,64.1906706 23.1219146,63.3356173 Z" id="Shape"></path>
            <path d="M35.219973,75.4969661 L33.676818,78.3997131 C34.6162637,78.9075003 35.5842007,79.3719398 36.5806292,79.7930317 L37.8327101,76.7509528 C36.9413912,76.3773514 36.0693725,75.9588248 35.219973,75.4969661 Z" id="Shape"></path>
            <path d="M52.0006292,78.8502194 L52.3217348,82.124518 C53.3883899,82.0234381 54.4493048,81.8684286 55.5004494,81.6600785 L54.8628584,78.4322239 C53.9234127,78.6149034 52.9693363,78.7542353 52.0006292,78.8502194 Z" id="Shape"></path>
            <path d="M40.5563326,77.7216314 L39.6068764,80.8705313 C40.6318911,81.183953 41.671996,81.4451458 42.723218,81.6531119 L43.3631191,78.4252573 C42.4113528,78.2371593 41.4734472,78.0002951 40.5563326,77.7216314 Z" id="Shape"></path>
            <path d="M46.2253483,78.8502194 L45.9042427,82.124518 C46.959194,82.229791 48.028776,82.2824275 49.1129888,82.2824275 L49.1129888,78.9918735 C48.1381213,78.9918735 47.1755745,78.9446555 46.2253483,78.8502194 Z" id="Shape"></path>
            <path d="M26.0095551,36.9554526 L23.1219146,35.4042246 C22.6655972,36.2582539 22.2523342,37.1348315 21.8836944,38.0306301 L24.9076315,39.2915834 C25.2433678,38.4865549 25.6106757,37.7078446 26.0095551,36.9554526 Z" id="Shape"></path>
            <path d="M32.4963506,29.02747 L30.4172494,26.4730526 C29.6703131,27.0923053 28.9557184,27.7432947 28.2734652,28.4260208 L30.5835775,30.7482184 C31.1965273,30.1413508 31.8341184,29.5677679 32.4963506,29.02747 Z" id="Shape"></path>
            <path d="M30.5905079,30.7505406 L28.2803955,28.428343 C27.5873618,29.1133913 26.9520809,29.8216616 26.337591,30.5810202 L28.8787146,32.670998 C29.4100404,31.9998829 29.9852584,31.3496676 30.5905079,30.7505406 Z" id="Shape"></path>
            <path d="M24.0413393,57.0145954 L20.908827,57.9690186 C21.1870406,58.8977842 21.5124231,59.8116064 21.8836944,60.7068896 L24.9076315,59.4482585 C24.5819056,58.6563891 24.2908315,57.84362 24.0413393,57.0145954 Z" id="Shape"></path>
            <path d="M28.8764045,32.6663536 L26.3352809,30.5763758 C25.7192509,31.3272197 25.144803,32.1059299 24.6119371,32.9125066 L27.3355596,34.7400761 C27.8091326,34.022517 28.3219775,33.3305021 28.8764045,32.6663536 Z" id="Shape"></path>
            <path d="M22.9186247,49.3699209 L19.6359551,49.3699209 C19.6359551,50.3498883 19.6829273,51.3174706 19.7768719,52.2726679 L23.0364404,51.9498825 C22.9625169,51.0999581 22.9186247,50.240745 22.9186247,49.3699209 Z" id="Shape"></path>
            <path d="M23.0456809,51.9498825 L19.7861124,52.2726679 C19.8800569,53.2448947 20.0202037,54.2039623 20.2065528,55.1498708 L23.4199191,54.506622 C23.2525525,53.6612316 23.1276482,52.8079042 23.0456809,51.9498825 Z" id="Shape"></path>
            <path d="M36.7631281,26.1456228 L35.219973,23.2405536 C34.3683116,23.7049931 33.5420614,24.2042656 32.7412225,24.738371 L34.5592809,27.476242 C35.2707955,26.9978693 36.0054112,26.5520073 36.7631281,26.1456228 Z" id="Shape"></path>
            <path d="M22.9186247,49.3699209 C22.9186247,48.4990968 22.9625169,47.6375615 23.0456809,46.7876372 L19.7861124,46.4648517 C19.6937079,47.4215971 19.6467356,48.3899535 19.6451955,49.3699209 L22.9186247,49.3699209 Z" id="Shape"></path>
            <path d="M24.0413393,41.7252464 L20.908827,40.768501 C20.6285333,41.6973801 20.3975221,42.6378701 20.2157933,43.5899711 L23.4291596,44.2308976 C23.5915424,43.3859449 23.7958575,42.5496835 24.0413393,41.7252464 Z" id="Shape"></path>
            <path d="M61.4628494,26.1456228 L63.0060045,23.2405536 C62.1589633,22.7854028 61.2872809,22.3712776 60.3909573,21.9981778 L59.1388764,25.0379345 C59.9335551,25.3754272 60.7082127,25.7446566 61.4628494,26.1456228 Z" id="Shape"></path>
            <path d="M65.729627,29.02747 L67.8087281,26.4730526 C67.0648719,25.8537999 66.2948345,25.2763468 65.4986157,24.7406932 L63.6805573,27.4785642 C64.3782112,27.9546147 65.0689348,28.4701425 65.729627,29.02747 Z" id="Shape"></path>
            <path d="M69.3611236,32.6663536 L71.8906966,30.5763758 C71.2785169,29.8286281 70.6316854,29.1087469 69.9502022,28.4236986 L67.6400899,30.7458962 C68.2407191,31.3496676 68.8159371,31.9998829 69.3611236,32.6663536 Z" id="Shape"></path>
            <path d="M72.2164225,36.9554526 L75.1040629,35.4042246 C74.6420404,34.5473337 74.1499865,33.7159869 73.6163506,32.9125066 L70.8927281,34.7400761 C71.3732315,35.4553129 71.8144629,36.1937718 72.2164225,36.9554526 Z" id="Shape"></path>
            <path d="M46.5441438,23.163921 L46.2253483,19.8896224 C45.2551011,19.9840585 44.3010247,20.1249384 43.3631191,20.3122624 L44.0030202,23.5424392 C44.8377408,23.375241 45.684782,23.2490683 46.5441438,23.163921 Z" id="Shape"></path>
            <path d="M41.5080989,24.1671104 L40.5563326,21.0182105 C39.6325224,21.2982515 38.7234747,21.6253296 37.8327101,21.9981778 L39.0871011,25.0379345 C39.8748494,24.7105046 40.6833888,24.4179077 41.5080989,24.1671104 Z" id="Shape"></path>
            <path d="M56.7178787,24.1671104 L57.6673348,21.0182105 C56.7432899,20.7364505 55.8084644,20.5042307 54.8628584,20.3215512 L54.2229573,23.551728 C55.0643343,23.7146829 55.8970264,23.9200698 56.7178787,24.1671104 Z" id="Shape"></path>
            <path d="M51.6795236,23.163921 L52.0006292,19.8896224 C51.0519431,19.7967345 50.0893963,19.7495165 49.1129888,19.7479684 L49.1129888,23.0385224 C49.9792809,23.0385224 50.8363326,23.0826441 51.6795236,23.163921 Z" id="Shape"></path>
            <path d="M41.5080989,74.5704093 L40.5563326,77.7216314 C41.4803775,78.0002951 42.4044225,78.2371593 43.3631191,78.4182907 L44.0030202,75.190436 C43.1590592,75.0247859 42.3274187,74.8181103 41.5080989,74.5704093 Z" id="Shape"></path>
            <path d="M72.2164225,61.7843893 L75.1040629,63.3356173 C75.5603877,62.4807985 75.9736499,61.6034474 76.3422831,60.7068896 L73.316036,59.4482585 C72.988,60.2470945 72.6214622,61.0258047 72.2164225,61.7843893 Z" id="Shape"></path>
            <path d="M74.1823281,57.0145954 L77.3171506,57.9690186 C77.594364,57.0401396 77.8299955,56.1112606 78.0101843,55.1498708 L74.7991281,54.506622 C74.635485,55.3524791 74.429625,56.1895276 74.1823281,57.0145954 Z" id="Shape"></path>
            <path d="M65.729627,69.7239829 L67.8087281,72.2667892 C68.5556644,71.6475366 69.2702592,70.9973212 69.9525124,70.3161433 L67.6424,67.9939457 C67.0309903,68.5992652 66.3933993,69.1759442 65.729627,69.7239829 Z" id="Shape"></path>
            <path d="M74.8060584,54.506622 L78.0171146,55.1498708 C78.2034637,54.2039623 78.3443805,53.2448947 78.4398652,52.2726679 L75.1802966,51.9498825 C75.0971326,52.8160622 74.9700764,53.6683087 74.8060584,54.506622 Z" id="Shape"></path>
            <path d="M69.3611236,66.0734883 L71.8906966,68.1634661 C72.5028764,67.4157185 73.0780944,66.6354601 73.6163506,65.8412685 L70.8927281,64.013699 C70.4145348,64.7150027 69.904,65.4093397 69.3611236,66.0734883 Z" id="Shape"></path>
            <path d="M26.0095551,61.7843893 L23.1219146,63.3356173 C23.5760649,64.1906706 24.0725927,65.022288 24.609627,65.8273353 L27.3332494,63.9997658 C26.8573663,63.2845289 26.4138247,62.5460701 26.0095551,61.7843893 Z" id="Shape"></path>
            <path d="M74.1823281,41.7252464 L77.3171506,40.768501 C77.0353169,39.839622 76.710361,38.9269983 76.3422831,38.0306301 L73.316036,39.2915834 C73.6452945,40.0876574 73.9344254,40.899909 74.1823281,41.7252464 Z" id="Shape"></path>
            <path d="M74.8060584,44.2308976 L78.0171146,43.5899711 C77.8299955,42.6309035 77.594364,41.6904135 77.3240809,40.768501 L74.1892584,41.7252464 C74.4362823,42.5496053 74.6421394,43.3858668 74.8060584,44.2308976 Z" id="Shape"></path>
            <path d="M75.1802966,51.9498825 L78.4398652,52.2726679 C78.5322697,51.3190188 78.5792419,50.3514364 78.580782,49.3699209 L75.3096629,49.3699209 C75.3096629,50.2415191 75.2665408,51.1015063 75.1802966,51.9498825 Z" id="Shape"></path>
            <path d="M75.1802966,46.7876372 L78.4398652,46.4648517 C78.3443805,45.492625 78.2034637,44.5343315 78.0171146,43.5899711 L74.8060584,44.2308976 C74.9700764,45.0715332 75.0971326,45.9237797 75.1802966,46.7876372 Z" id="Shape"></path>
            <path d="M51.6795236,75.5735986 L52.0006292,78.8502194 C52.9677963,78.7542353 53.9218727,78.6125812 54.8628584,78.4252573 L54.2229573,75.1974026 C53.3890067,75.3622786 52.5411955,75.4899995 51.6795236,75.5735986 Z" id="Shape"></path>
            <path d="M36.7631281,72.5942191 L35.219973,75.4969661 C36.0695578,75.9556707 36.9415735,76.3710956 37.8327101,76.741664 L39.0871011,73.6995852 C38.2943999,73.3707516 37.5187513,73.0018249 36.7631281,72.5942191 Z" id="Shape"></path>
            <path d="M32.4963506,69.7239829 L30.4172494,72.2667892 C31.1611056,72.8860419 31.9311431,73.4642691 32.7273618,74.0014709 L34.5454202,71.2635999 C33.8462262,70.7821309 33.163203,70.2689252 32.4963506,69.7239829 Z" id="Shape"></path>
            <path d="M61.4628494,72.5942191 L63.0060045,75.4969661 C63.8576659,75.0325266 64.6839161,74.5340282 65.4847551,74.0014709 L63.6666966,71.2635999 C62.9582622,71.746617 62.2236464,72.1901567 61.4628494,72.5942191 Z" id="Shape"></path>
            <path d="M28.8764045,66.0734883 L26.3352809,68.1634661 C26.9513109,68.91431 27.5989124,69.6326431 28.2780854,70.3184655 L30.5881978,67.9962679 C29.9844884,67.3816596 29.4138906,66.740733 28.8764045,66.0734883 Z" id="Shape"></path>
            <path d="M59.1388764,73.6995852 L60.3909573,76.741664 C61.2828492,76.3711023 62.1556343,75.9556781 63.0060045,75.4969661 L61.4628494,72.5942191 C60.7072262,73.0018249 59.9315776,73.3707516 59.1388764,73.6995852 Z" id="Shape"></path>
            <path d="M56.7178787,74.5704093 L57.6673348,77.7216314 C58.5913798,77.4383233 59.4992539,77.1116675 60.3909573,76.741664 L59.1388764,73.6995852 C58.3469453,74.0305662 57.5389208,74.3212096 56.7178787,74.5704093 Z" id="Shape"></path>
            <path d="M46.5441438,75.5735986 L46.2253483,78.8502194 C47.1755745,78.9431073 48.1381213,78.9903254 49.1129888,78.9918735 L49.1129888,75.7036417 C48.2505468,75.7036417 47.3942652,75.660294 46.5441438,75.5735986 Z" id="Shape"></path>
            <path d="M27.1761618,42.6796697 L24.0413393,41.7252464 C23.7927435,42.5495187 23.585344,43.3857819 23.4199191,44.2308976 L26.6309753,44.8741464 C26.7756242,44.1338468 26.9575875,43.4014109 27.1761618,42.6796697 Z" id="Shape"></path>
            <path d="M38.3062831,29.0483698 L36.7631281,26.1456228 C36.0054112,26.5520073 35.2707955,26.9978693 34.5592809,27.476242 L36.3796494,30.2117907 C37.0010697,29.7937952 37.6548315,29.403666 38.3062831,29.0483698 Z" id="Shape"></path>
            <path d="M27.1761618,56.05785 L24.0413393,57.0145954 C24.2908315,57.84362 24.5819056,58.6563891 24.9076315,59.4482585 L27.9338787,58.1873052 C27.6474247,57.4952903 27.3948524,56.7854719 27.1761618,56.05785 Z" id="Shape"></path>
            <path d="M28.8971955,38.5066806 L26.0095551,36.9554526 C25.6106757,37.7078446 25.2433678,38.4865549 24.9076315,39.2915834 L27.9338787,40.5502145 C28.2234127,39.852007 28.5445184,39.1708291 28.8971955,38.5066806 Z" id="Shape"></path>
            <path d="M63.652836,31.5609876 L65.7319371,29.0065702 C65.0712449,28.4608538 64.3805213,27.9453259 63.6690067,27.4669532 L61.8486382,30.202502 C62.4708285,30.6297863 63.0722277,31.0826148 63.652836,31.5609876 Z" id="Shape"></path>
            <path d="M59.9173843,29.0483698 L61.4628494,26.1456228 C60.7097528,25.7446566 59.9350951,25.3754272 59.1388764,25.0379345 L57.8844854,28.0800134 C58.5805993,28.3710621 59.2582322,28.6938476 59.9173843,29.0483698 Z" id="Shape"></path>
            <path d="M66.8292404,34.7540092 L69.370364,32.6640314 C68.8251775,31.9975607 68.2499596,31.3566342 67.6424,30.7482184 L65.3322876,33.070416 C65.854373,33.6091658 66.3533573,34.1703636 66.8292404,34.7540092 Z" id="Shape"></path>
            <path d="M28.8971955,60.2308391 L26.0095551,61.7843893 C26.4138247,62.5460701 26.8573663,63.2845289 27.3332494,63.9997658 L30.0545618,62.1698741 C29.6387416,61.5444289 29.2529528,60.8980839 28.8971955,60.2308391 Z" id="Shape"></path>
            <path d="M46.8652494,26.4405418 L46.5441438,23.163921 C45.684782,23.2506164 44.8377408,23.3767892 44.0030202,23.5424392 L44.6406112,26.7702939 C45.3736869,26.6247695 46.115233,26.5148522 46.8652494,26.4405418 Z" id="Shape"></path>
            <path d="M55.7661124,27.3183325 L56.7178787,24.1671104 C55.8971912,23.9169394 55.0644973,23.7084519 54.2229573,23.5424392 L53.5946067,26.7702939 C54.3271818,26.9160042 55.0519454,27.0989181 55.7661124,27.3183325 Z" id="Shape"></path>
            <path d="M51.358418,26.4405418 L51.6795236,23.163921 C50.8363326,23.0826441 49.9792809,23.0385224 49.1129888,23.0385224 L49.1129888,26.3313986 C49.8707056,26.3313986 50.619182,26.3677797 51.358418,26.4405418 Z" id="Shape"></path>
            <path d="M51.358418,72.2993 L51.6795236,75.5735986 C52.5411955,75.4899995 53.3890067,75.3622786 54.2206472,75.1974026 L53.5946067,71.969548 C52.8553708,72.1135242 52.1115146,72.2203453 51.358418,72.2993 Z" id="Shape"></path>
            <path d="M69.328782,60.2308391 L72.2164225,61.7843893 C72.6214622,61.0258047 72.988,60.2470945 73.316036,59.4482585 L70.2920989,58.1873052 C70.0025648,58.8870608 69.6814592,59.5682387 69.328782,60.2308391 Z" id="Shape"></path>
            <path d="M71.9230382,51.627097 L75.1802966,51.9498825 C75.2634607,51.0999581 75.3050427,50.239971 75.3050427,49.3699209 L72.0316135,49.3699209 C72.0316135,50.1316017 71.9954217,50.8839938 71.9230382,51.627097 Z" id="Shape"></path>
            <path d="M42.4575551,71.4215093 L41.5080989,74.5704093 C42.3243386,74.8196585 43.155979,75.0286563 44.0030202,75.1974026 L44.6406112,71.969548 C43.8998352,71.8271198 43.1721498,71.6444403 42.4575551,71.4215093 Z" id="Shape"></path>
            <path d="M38.3062831,69.6914721 L36.7631281,72.5942191 C37.5187513,73.0018249 38.2943999,73.3707516 39.0871011,73.6995852 L40.339182,70.6598285 C39.6446082,70.3687797 38.9669753,70.0459943 38.3062831,69.6914721 Z" id="Shape"></path>
            <path d="M31.3967371,63.9858326 L28.8556135,66.0758104 C29.4008,66.7430552 29.976018,67.3808855 30.5812674,67.9893013 L32.8913798,65.6671037 C32.3708345,65.129902 31.8726202,64.5694783 31.3967371,63.9858326 Z" id="Shape"></path>
            <path d="M34.5731416,67.1788543 L32.4940404,69.7332717 C33.1547326,70.2797622 33.842376,70.7929678 34.5569708,71.2728887 L36.3773393,68.5373399 C35.7536777,68.1151839 35.1515187,67.6617833 34.5731416,67.1788543 Z" id="Shape"></path>
            <path d="M68.1714157,36.5676456 C68.587236,37.1868983 68.9722547,37.8332433 69.3264719,38.5066806 L72.2141124,36.9554526 C71.8075326,36.1937718 71.3663011,35.4553129 70.890418,34.7400761 L68.1714157,36.5676456 Z" id="Shape"></path>
            <path d="M46.8652494,72.2993 L46.5441438,75.5735986 C47.3896449,75.6571977 48.2459266,75.6989973 49.1129888,75.6989973 L49.1129888,72.4084433 C48.3552719,72.4084433 47.6044854,72.3712881 46.8652494,72.2993 Z" id="Shape"></path>
            <path d="M30.3109843,43.6364151 L27.1761618,42.6796697 C26.9575875,43.4014109 26.7756242,44.1338468 26.6309753,44.8741464 L29.8443416,45.5150729 C29.9690876,44.8787908 30.1261753,44.2517974 30.3109843,43.6364151 Z" id="Shape"></path>
            <path d="M31.784836,58.6796111 L28.8971955,60.2308391 C29.2529528,60.8980839 29.6379715,61.5444289 30.0522517,62.1698741 L32.7758742,60.3399824 C32.4180799,59.8035551 32.0873171,59.2493998 31.784836,58.6796111 Z" id="Shape"></path>
            <path d="M36.6499326,34.1037939 L34.5708315,31.5493766 C33.9917633,32.0277493 33.4357963,32.5332143 32.9029303,33.0657716 L35.2130427,35.3879692 C35.6750652,34.9490738 36.1532584,34.5148229 36.6499326,34.1037939 Z" id="Shape"></path>
            <path d="M33.9263101,36.8416649 L31.3851865,34.7516871 C30.9093034,35.3322365 30.4619116,35.9367819 30.0430112,36.5653234 L32.7666337,38.3952151 C33.1362517,37.8518208 33.5197303,37.3409374 33.9263101,36.8416649 Z" id="Shape"></path>
            <path d="M38.1977079,32.9496617 L36.3796494,30.2117907 C35.7554085,30.6308641 35.152481,31.0811626 34.5731416,31.5609876 L36.6522427,34.1154049 C37.1466067,33.6950871 37.6548315,33.3096023 38.1977079,32.9496617 Z" id="Shape"></path>
            <path d="M31.784836,40.0602308 L28.8971955,38.5066806 C28.5429783,39.1708291 28.2218727,39.852007 27.9338787,40.5502145 L30.9601258,41.8111677 C31.2073079,41.2120408 31.4845213,40.638458 31.784836,40.0602308 Z" id="Shape"></path>
            <path d="M30.3109843,55.1034268 L27.1761618,56.05785 C27.3948524,56.7839238 27.6474247,57.4937422 27.9338787,58.1873052 L30.9601258,56.9263519 C30.7244944,56.3341915 30.4934831,55.7327423 30.3109843,55.1034268 Z" id="Shape"></path>
            <path d="M30.9555056,56.9263519 L27.9292584,58.1873052 C28.2187925,58.8870608 28.5398981,59.5682387 28.8925753,60.2308391 L31.7802157,58.6796111 C31.4845213,58.1106727 31.2073079,57.5278011 30.9555056,56.9263519 Z" id="Shape"></path>
            <path d="M29.4677933,49.3699209 C29.4677933,48.7150612 29.5001348,48.0718125 29.5625079,47.4332081 L26.3029393,47.1104227 C26.2313258,47.8535259 26.194364,48.6082401 26.194364,49.3699209 L29.4677933,49.3699209 Z" id="Shape"></path>
            <path d="M29.5694382,51.3043115 L26.3098697,51.627097 C26.3837933,52.3841334 26.4923685,53.131881 26.6379056,53.8656955 L29.8512719,53.2224467 C29.7253739,52.5882263 29.6313104,51.9480381 29.5694382,51.3043115 Z" id="Shape"></path>
            <path d="M54.8166562,30.4695547 L55.7661124,27.3183325 C55.0489079,27.0986138 54.3210527,26.9156981 53.5853663,26.7702939 L52.9454652,30.0004708 C53.5807461,30.1258694 54.2044764,30.2837789 54.8166562,30.4695547 Z" id="Shape"></path>
            <path d="M39.8517483,31.9511167 L38.3062831,29.0483698 C37.6432809,29.403666 37.0010697,29.7937952 36.3796494,30.2094686 L38.1977079,32.9473395 C38.7321139,32.5897211 39.2834607,32.2576468 39.8517483,31.9511167 Z" id="Shape"></path>
            <path d="M56.6324045,31.1174478 L57.8844854,28.075369 C57.1917803,27.7852348 56.4847271,27.5310072 55.7661124,27.3136881 L54.8166562,30.4649103 C55.4426966,30.6530083 56.0410157,30.8852281 56.6324045,31.1174478 Z" id="Shape"></path>
            <path d="M58.3742292,31.9511167 L59.9173843,29.0483698 C59.2582322,28.6922995 58.5805993,28.369514 57.8844854,28.0800134 L56.6324045,31.1174478 C57.2253333,31.3697933 57.8059416,31.6476829 58.3742292,31.9511167 Z" id="Shape"></path>
            <path d="M64.2973573,36.8416649 L66.8384809,34.7516871 C66.3625978,34.1695895 65.8589933,33.610714 65.3276674,33.0750604 L63.0175551,35.397258 C63.4682456,35.8565999 63.8953983,36.3386919 64.2973573,36.8416649 Z" id="Shape"></path>
            <path d="M61.5760449,34.1037939 L63.6551461,31.5493766 C63.0745378,31.0710039 62.4723685,30.6212716 61.8486382,30.2001798 L60.0282697,32.9380507 C60.5626757,33.3065061 61.0786007,33.6950871 61.5760449,34.1037939 Z" id="Shape"></path>
            <path d="M43.4093213,30.4695547 L42.4575551,27.3183325 C41.7391888,27.53641 41.0321736,27.790624 40.339182,28.0800134 L41.593573,31.1220922 C42.1849618,30.8759393 42.7902112,30.6584268 43.4093213,30.4695547 Z" id="Shape"></path>
            <path d="M47.1863551,29.7241293 L46.8652494,26.4475084 C46.1121528,26.5218188 45.3706067,26.6317361 44.6406112,26.7772605 L45.2782022,30.0004708 C45.9092548,29.8763325 46.5461065,29.7841027 47.1863551,29.7241293 Z" id="Shape"></path>
            <path d="M51.0373124,29.7241293 L51.358418,26.4475084 C50.619182,26.3747463 49.8707056,26.3383652 49.1129888,26.3383652 L49.1129888,29.6289192 C49.7629004,29.6242748 50.4043416,29.6560115 51.0373124,29.7241293 Z" id="Shape"></path>
            <path d="M68.3793258,53.2224467 L71.5950022,53.8749843 C71.7382292,53.1411698 71.8491146,52.3934222 71.9230382,51.6363858 L68.6634697,51.3136003 C68.5987865,51.9576231 68.5040719,52.5939053 68.3793258,53.2224467 Z" id="Shape"></path>
            <path d="M67.9173034,55.1034268 L71.0521258,56.05785 C71.2669663,55.3426132 71.4494652,54.6087987 71.5973124,53.8656955 L68.3793258,53.2224467 C68.2530397,53.8618251 68.0990322,54.4888185 67.9173034,55.1034268 Z" id="Shape"></path>
            <path d="M67.2635416,56.9263519 L70.2920989,58.1873052 C70.5785528,57.4952903 70.8311251,56.7854719 71.0498157,56.05785 L67.9173034,55.1034268 C67.725564,55.7327423 67.5084135,56.3341915 67.2635416,56.9263519 Z" id="Shape"></path>
            <path d="M66.4388315,58.6796111 L69.328782,60.2308391 C69.6814592,59.5682387 70.0025648,58.8870608 70.2920989,58.1873052 L67.2635416,56.9263519 C67.0163596,57.5278011 66.7414562,58.1106727 66.4388315,58.6796111 Z" id="Shape"></path>
            <path d="M68.6634697,51.3043115 L71.9230382,51.627097 C71.9938816,50.8839938 72.0300734,50.1316017 72.0316135,49.3699209 L68.7581843,49.3699209 C68.7581843,50.0224585 68.7235326,50.6680294 68.6634697,51.3043115 Z" id="Shape"></path>
            <path d="M66.4388315,40.0602308 L69.328782,38.5066806 C68.9730247,37.8394358 68.588006,37.1930908 68.1737258,36.5676456 L65.4501034,38.3975373 C65.8043206,38.934739 66.1338966,39.4889702 66.4388315,40.0602308 Z" id="Shape"></path>
            <path d="M33.9263101,61.898177 L31.3851865,63.9881548 C31.8610697,64.5702523 32.3639041,65.1283538 32.8936899,65.6624593 L35.2038022,63.3402617 C34.7602607,62.8773703 34.33443,62.3966754 33.9263101,61.898177 Z" id="Shape"></path>
            <path d="M67.9173034,43.6364151 L71.0521258,42.6796697 C70.8318951,41.955144 70.5793228,41.2453256 70.294409,40.5502145 L67.2658517,41.8111677 C67.5091835,42.4056503 67.7263341,43.0140661 67.9173034,43.6364151 Z" id="Shape"></path>
            <path d="M68.6634697,47.4332081 L71.9230382,47.1104227 C71.8491146,46.3533863 71.7382292,45.6079608 71.5950022,44.8741464 L68.3793258,45.5150729 C68.5040719,46.1467107 68.5987865,46.7860891 68.6634697,47.4332081 Z" id="Shape"></path>
            <path d="M39.8517483,66.7864029 L38.3062831,69.6914721 C38.9669753,70.0459943 39.6446082,70.3687797 40.339182,70.6598285 L41.593573,67.6154275 C40.997564,67.3669523 40.4269663,67.0906108 39.8517483,66.7864029 Z" id="Shape"></path>
            <path d="M41.593573,67.6154275 L40.339182,70.6598285 C41.0306757,70.9462329 41.7368,71.2001265 42.4575551,71.4215093 L43.4093213,68.2726094 C42.7902112,68.0821892 42.1849618,67.8631285 41.593573,67.6154275 Z" id="Shape"></path>
            <path d="M43.4093213,68.2726094 L42.4575551,71.4261537 C43.1721498,71.6428922 43.8998352,71.8255717 44.6406112,71.9741923 L45.2782022,68.7370489 C44.6452315,68.6116502 44.0215011,68.456063 43.4093213,68.2726094 Z" id="Shape"></path>
            <path d="M35.2222831,63.3332951 L32.9121708,65.6554927 C33.4434966,66.1895981 33.9994637,66.6958372 34.5800719,67.1742099 L36.659173,64.6197926 C36.1588176,64.2157308 35.6792346,63.7863434 35.2222831,63.3332951 Z" id="Shape"></path>
            <path d="M61.5760449,64.6337257 L63.6551461,67.1881431 C64.235258,66.7102207 64.7911536,66.2033446 65.3207371,65.6694259 L63.0106247,63.3472283 C62.5501423,63.7946383 62.0719491,64.2234708 61.5760449,64.6337257 Z" id="Shape"></path>
            <path d="M36.6499326,64.6337257 L34.5708315,67.1881431 C35.1501709,67.667968 35.7530984,68.1182665 36.3773393,68.5373399 L38.1953978,65.7994689 C37.6548315,65.4302395 37.1466067,65.0447547 36.6499326,64.6337257 Z" id="Shape"></path>
            <path d="M54.8166562,68.2726094 L55.7661124,71.4261537 C56.4884075,71.2047709 57.1945318,70.9508773 57.8844854,70.6644729 L56.6324045,67.6200719 C56.0410157,67.8615804 55.4426966,68.079867 54.8166562,68.2726094 Z" id="Shape"></path>
            <path d="M58.3742292,66.7864029 L59.9173843,69.6914721 C60.5811566,69.3338537 61.2241378,68.9468207 61.8463281,68.5303733 L60.0259596,65.7925023 C59.4946337,66.1477986 58.9425169,66.4798728 58.3742292,66.7864029 Z" id="Shape"></path>
            <path d="M47.1863551,69.0226792 L46.8652494,72.2993 C47.6044854,72.3712881 48.3552719,72.4084433 49.1129888,72.4084433 L49.1129888,69.1178893 C48.4638472,69.1178893 47.8193258,69.0830563 47.1863551,69.0226792 Z" id="Shape"></path>
            <path d="M51.0373124,69.0226792 L51.358418,72.2993 C52.1115146,72.2249897 52.8553708,72.1135242 53.5853663,71.969548 L52.9454652,68.7370489 C52.3201948,68.8624476 51.6841438,68.9576577 51.0373124,69.0226792 Z" id="Shape"></path>
            <path d="M66.0484225,63.3402617 L66.8292404,63.9858326 C66.9770876,63.8047012 67.1180045,63.6166032 67.2589213,63.4331496 L66.4619326,62.815445 C66.3279461,62.991932 66.1893393,63.1637747 66.0484225,63.3402617 Z" id="Shape"></path>
            <path d="M67.3305348,61.6055801 C67.1942382,61.8076113 67.0579416,62.0073203 66.9170247,62.2047071 L67.7324944,62.7945452 C67.8803416,62.5878697 68.0304989,62.3811941 68.1714157,62.1698741 L67.3305348,61.6055801 Z" id="Shape"></path>
            <path d="M66.4619326,62.815445 L67.2589213,63.4331496 C67.4206292,63.2218296 67.5777169,63.0105096 67.7324944,62.7945452 L66.9170247,62.2047071 C66.7622472,62.4113826 66.6167101,62.6134138 66.4619326,62.815445 Z" id="Shape"></path>
            <path d="M65.4593438,62.0375088 L66.4619326,62.815445 C66.6167101,62.6134138 66.7691775,62.4113826 66.9239551,62.2047071 L65.8936449,61.4616038 C65.7481079,61.6566684 65.607191,61.8494108 65.4593438,62.0375088 Z" id="Shape"></path>
            <path d="M65.0712449,60.87641 L65.8867146,61.4616038 C66.018391,61.275828 66.1500674,61.08773 66.2771236,60.8973098 L65.4477933,60.3399824 C65.3253573,60.5211138 65.1983011,60.6976008 65.0712449,60.87641 Z" id="Shape"></path>
            <polygon id="Shape" points="65.4477933 60.3399824 66.2771236 61.170672 66.2771236 61.170672 65.4477933 60.3399824"></polygon>
            <path d="M64.6669753,61.4221265 L65.4593438,62.0375088 C65.6048809,61.8494108 65.7481079,61.6566684 65.8867146,61.4616038 L65.0712449,60.87641 C64.9395685,61.0598636 64.805582,61.2433172 64.6669753,61.4221265 Z" id="Shape"></path>
        </g>
    </g>
</svg>